<svg xmlns="http://www.w3.org/2000/svg" xmlns:xlink="http://www.w3.org/1999/xlink" aria-hidden="true" focusable="false"
 width="24px" height="24px" style="-ms-transform: rotate(360deg); -webkit-transform: rotate(360deg); 
transform: rotate(360deg);" preserveAspectRatio="xMidYMid meet" viewBox="0 0 448 512">
<defs>
      <linearGradient id="Gradient" x1="0" x2="0" y1="0" y2="1">
        <stop offset="0%" stop-color="#BC9CFF"/>
        <stop offset="100%" stop-color="#8BA4F9"/>
      </linearGradient>
     </defs>
<path d="M400 32H48A48 48 0 0 0 0 80v352a48 48 0 0 0 48 48h137.25V327.69h-63V256h63v-54.64c0-62.15 37-96.48 93.67-96.48c27.14 0 55.52 4.84 55.52 4.84v61h-31.27c-30.81 0-40.42 19.12-40.42 38.73V256h68.78l-11 71.69h-57.78V480H400a48 48 0 0 0 48-48V80a48 48 0 0 0-48-48z" fill="url(#Gradient)"/></svg>